<svg xmlns="http://www.w3.org/2000/svg" version="1.1" xmlns:xlink="http://www.w3.org/1999/xlink" width="18" height="18" x="0" y="0" viewBox="0 0 18 18" style="enable-background:new 0 0 18 18" xml:space="preserve" class=""><g><path d="M406 62h-65V45c0-24.813-20.187-45-45-45h-80c-24.813 0-45 20.187-45 45v17h-65c-24.853 0-45 20.147-45 45v15c0 8.284 6.716 15 15 15h360c8.284 0 15-6.716 15-15v-15c0-24.853-20.147-45-45-45zM201 45c0-8.271 6.729-15 15-15h80c8.271 0 15 6.729 15 15v17H201zM107.995 461.567a54.855 54.855 0 0 0 17.569 35.906A54.858 54.858 0 0 0 162.805 18h186.389c13.835 0 27.061-5.159 37.241-14.526s16.421-22.119 17.569-35.906L428.552 167H83.448zm213.047-30.689 15-200c.62-8.261 7.819-14.456 16.08-13.836 8.261.62 14.456 7.819 13.836 16.08l-15 200c-.62 8.261-7.819 14.456-16.08 13.836-8.261-.62-14.456-7.819-13.836-16.08zM241 232c0-8.284 6.716-15 15-15 8.284 0 15 6.716 15 15v200c0 8.284-6.716 15-15 15-8.284 0-15-6.716-15-15zm-81.122-14.958c8.261-.62 15.46 5.575 16.08 13.836l15 200c.62 8.261-5.575 15.46-13.836 16.08s-15.46-5.575-16.08-13.836l-15-200c-.619-8.261 5.575-15.46 13.836-16.08z" fill="#ffffff" opacity="1" data-original="#000000" class=""></path></g></svg>