<svg width="22" height="22" viewBox="0 0 22 22" fill="none" xmlns="http://www.w3.org/2000/svg">
<path d="M14.1791 20.3738C15.1341 20.5421 16.1159 20.5421 17.0709 20.3738C18.6059 20.1033 19.8423 19.0728 20.2682 17.7089L20.3585 17.4196C20.4524 17.1189 20.5 16.8079 20.5 16.4953C20.5 15.1172 19.2675 14 17.7472 14H13.5028C11.9825 14 10.75 15.1172 10.75 16.4953C10.75 16.8079 10.7976 17.1189 10.8915 17.4196L10.9819 17.7089C11.4077 19.0728 12.6441 20.1033 14.1791 20.3738ZM14.1791 20.3738C7.54545 19.1447 2.35534 13.9546 1.12621 7.32091M1.12621 7.32091C0.957929 6.36591 0.95793 5.38409 1.12621 4.42909C1.39669 2.89412 2.42723 1.65772 3.79111 1.23185L4.08041 1.14152C4.38111 1.04762 4.69214 1 5.00466 1C6.3828 1 7.50001 2.23248 7.5 3.75282L7.5 7.99718C7.50001 9.51752 6.3828 10.75 5.00466 10.75C4.69214 10.75 4.38111 10.7024 4.08041 10.6085L3.79111 10.5181C2.42723 10.0923 1.39669 8.85588 1.12621 7.32091Z" stroke="white" stroke-width="2"/>
</svg>
