<svg width="14" height="13" viewBox="0 0 14 13" fill="none" xmlns="http://www.w3.org/2000/svg">
<path d="M6.72168 11.542L6.35352 11.3057L6.3457 11.3008C6.34441 11.3 6.33836 11.2963 6.32715 11.2891C6.31448 11.2809 6.29675 11.2696 6.27441 11.2549C6.22895 11.225 6.16429 11.1816 6.08398 11.127C5.92336 11.0176 5.69884 10.8608 5.43164 10.6641C4.89629 10.2699 4.19286 9.71805 3.48828 9.06738C2.74403 8.38026 2.13502 7.70974 1.6709 7.07031L1.48145 6.79785C1.17672 6.34297 0.943545 5.90003 0.783203 5.48145C0.592209 4.98196 0.5 4.50233 0.5 4.05273C0.50006 3.5718 0.596713 3.1052 0.786133 2.66504C0.968258 2.24205 1.23189 1.85873 1.56152 1.53711V1.53613C1.89386 1.21064 2.28075 0.956087 2.70996 0.77832L2.71094 0.777344C3.15497 0.592929 3.62497 0.5 4.1123 0.5C4.78779 0.5 5.44606 0.684637 6.01758 1.0332C6.15421 1.11655 6.28382 1.20834 6.40625 1.30762L6.72168 1.56348L7.03613 1.30762C7.15866 1.20823 7.28902 1.11663 7.42578 1.0332C7.99726 0.68469 8.65562 0.5 9.33105 0.5H9.33203C9.81257 0.498896 10.2886 0.593002 10.7324 0.777344L10.7334 0.77832C11.1608 0.955253 11.5505 1.21233 11.8809 1.53613L11.8818 1.53711C12.17 1.81901 12.4076 2.14771 12.585 2.50879L12.6572 2.66602C12.8465 3.10615 12.9428 3.57184 12.9414 4.05176V4.05273C12.9414 4.50225 12.8501 4.98205 12.6592 5.48145L12.6582 5.4834C12.4999 5.90016 12.2652 6.34222 11.96 6.79785C11.4769 7.51798 10.8037 8.2821 9.95312 9.06738C8.53906 10.3718 7.13881 11.273 7.08789 11.3057L6.72168 11.542Z" fill="#c92e48" fill-opacity="0.9" stroke="white"/>
</svg>
